<svg id="svg" version="1.1" xmlns="http://www.w3.org/2000/svg" xmlns:xlink="http://www.w3.org/1999/xlink" width="400" height="400" viewBox="0, 0, 400,400"><g id="svgg"><path id="path0" d="M59.698 129.200 L 59.800 163.800 93.556 163.902 C 118.164 163.977,127.460 163.882,127.856 163.553 C 128.647 162.897,128.642 96.552,127.851 95.511 C 127.364 94.870,124.964 94.814,93.462 94.711 L 59.595 94.600 59.698 129.200 M144.396 95.300 C 144.394 95.575,144.388 111.100,144.383 129.800 L 144.373 163.800 178.287 163.800 L 212.200 163.800 212.310 130.200 C 212.371 111.720,212.322 96.195,212.202 95.700 L 211.985 94.800 178.192 94.800 C 151.427 94.800,144.399 94.904,144.396 95.300 M60.671 179.529 C 60.302 179.600,59.998 179.780,59.996 179.929 C 59.994 180.078,59.988 195.500,59.983 214.200 L 59.973 248.200 93.643 248.302 C 118.186 248.377,127.460 248.282,127.856 247.953 C 128.615 247.323,128.645 180.934,127.887 180.000 C 127.444 179.455,63.389 179.006,60.671 179.529 M144.394 179.600 C 144.391 179.820,144.386 195.345,144.383 214.100 L 144.377 248.200 178.289 248.200 L 212.200 248.200 212.310 214.600 C 212.371 196.120,212.322 180.595,212.202 180.100 L 211.985 179.200 178.192 179.200 C 155.935 179.200,144.398 179.337,144.394 179.600 M59.800 264.632 C 59.536 264.743,59.468 276.289,59.600 298.700 L 59.800 332.600 93.600 332.800 C 122.707 332.972,127.469 332.920,127.900 332.424 C 128.748 331.446,128.618 264.969,127.767 264.643 C 127.067 264.374,60.438 264.363,59.800 264.632 M144.396 264.498 C 144.394 264.554,144.388 279.900,144.383 298.600 L 144.373 332.600 178.287 332.600 L 212.200 332.600 212.200 298.600 L 212.200 264.600 178.300 264.498 C 159.655 264.441,144.398 264.441,144.396 264.498 M228.584 264.900 C 228.479 265.175,228.440 280.520,228.497 299.000 L 228.600 332.600 262.578 332.702 C 286.021 332.773,296.686 332.674,296.978 332.382 C 297.589 331.771,297.654 265.111,297.043 264.706 C 296.203 264.149,228.798 264.340,228.584 264.900 " stroke="none" fill="#4db5ff" fill-rule="evenodd"></path><path id="path1" d="M287.693 58.922 C 283.929 63.504,282.204 65.529,279.660 68.350 C 278.197 69.973,276.835 71.593,276.634 71.950 C 276.433 72.308,275.893 72.974,275.434 73.431 C 274.975 73.888,273.880 75.229,273.000 76.412 C 272.120 77.595,270.398 79.651,269.173 80.981 C 267.949 82.312,266.539 83.940,266.041 84.600 C 265.542 85.260,264.297 86.687,263.273 87.771 C 262.248 88.855,260.958 90.328,260.405 91.043 C 257.742 94.490,254.398 98.451,252.118 100.861 C 250.733 102.325,249.600 103.697,249.600 103.911 C 249.600 104.125,248.430 105.605,247.000 107.200 C 243.411 111.203,243.817 112.333,250.702 117.483 C 251.524 118.097,254.087 120.287,256.398 122.348 C 258.709 124.410,261.590 126.830,262.800 127.726 C 264.010 128.622,265.751 130.086,266.669 130.978 C 267.587 131.870,269.525 133.590,270.976 134.800 C 272.427 136.010,275.276 138.449,277.307 140.220 C 279.338 141.990,281.630 143.866,282.400 144.388 C 283.170 144.911,284.982 146.432,286.426 147.769 C 296.280 156.891,298.980 158.559,299.887 156.088 C 300.143 155.389,302.256 152.874,306.623 148.067 C 307.955 146.600,309.382 144.860,309.792 144.200 C 310.203 143.540,311.567 141.920,312.822 140.600 C 314.078 139.280,315.622 137.460,316.253 136.556 C 316.884 135.652,319.380 132.701,321.800 129.997 C 324.220 127.294,326.490 124.614,326.844 124.041 C 327.199 123.468,328.430 122.010,329.580 120.800 C 330.729 119.590,332.379 117.656,333.246 116.503 C 334.112 115.349,335.446 113.780,336.211 113.016 C 336.975 112.252,337.600 111.474,337.600 111.288 C 337.600 111.102,338.162 110.421,338.850 109.775 C 343.178 105.706,344.909 102.514,343.264 101.634 C 342.396 101.170,340.514 99.591,338.317 97.485 C 337.447 96.651,336.052 95.516,335.216 94.963 C 334.380 94.410,332.506 92.797,331.053 91.379 C 329.599 89.960,328.242 88.800,328.036 88.800 C 327.831 88.800,326.362 87.540,324.772 86.000 C 323.182 84.460,321.732 83.200,321.549 83.200 C 321.366 83.200,320.087 82.121,318.708 80.802 C 317.329 79.483,316.067 78.403,315.905 78.402 C 315.743 78.401,314.737 77.545,313.669 76.500 C 312.602 75.455,310.329 73.520,308.619 72.200 C 306.909 70.880,305.053 69.260,304.496 68.600 C 303.939 67.940,302.905 67.040,302.198 66.600 C 301.491 66.160,299.791 64.810,298.420 63.600 C 297.049 62.390,294.755 60.365,293.323 59.100 C 290.161 56.307,289.850 56.297,287.693 58.922 M228.349 179.061 C 227.335 180.282,227.345 247.645,228.359 248.563 C 229.508 249.603,296.540 249.559,297.691 248.517 C 298.858 247.462,298.598 179.826,297.424 178.968 C 296.149 178.036,229.125 178.127,228.349 179.061 " stroke="none" fill="#4db5ff" fill-rule="evenodd"></path></g></svg>